<svg xmlns="http://www.w3.org/2000/svg" viewBox="0 0 170.98 162.8"><defs><style>.cls-1{fill:#39493d;}</style></defs><title>Asset 7</title><g id="Layer_2" data-name="Layer 2"><g id="TEMPLATE"><g id="_04_Logo_usage" data-name="04 Logo usage"><path class="cls-1" d="M73.94,64.13v55l-34.12,1-.38-64.28-26,14a4.52,4.52,0,0,0-2.38,4v51.84H8.41l-1.25-53a5,5,0,0,1,2.41-4.41L38.83,50.46A5,5,0,0,1,43.05,50l27.5,9.39A5,5,0,0,1,73.94,64.13Z"/><path class="cls-1" d="M.64,128.61c7-3.41,68.36-30.78,169.42-.44a1.11,1.11,0,0,1,.92,1.1,1.54,1.54,0,0,1-1.63,1.22c-57.17-12.09-113.13-14.84-167.83.19A1.23,1.23,0,0,1,0,129.6C-.12,128.52.64,128.61.64,128.61Z"/><path class="cls-1" d="M120.15,23.87v96.24l-30.36-1.59V5.26L56.25,21.88a4.9,4.9,0,0,0-2.72,4.21l-2.09,55.1-2.11.36V24.92a6,6,0,0,1,3.16-5.29L87.46.72a6,6,0,0,1,6.48.48l23.8,17.86A6,6,0,0,1,120.15,23.87Z"/><path class="cls-1" d="M163.66,72.94l-.95,55.32-20.57-4.5V61.69L111,72.16,109.13,120l-1.8.3V73a3.42,3.42,0,0,1,2.22-3.21l31.71-11.94a3.41,3.41,0,0,1,3.11.36L162.14,70A3.44,3.44,0,0,1,163.66,72.94Z"/><path class="cls-1" d="M6,142.19l1.92,6.33c.54,1.77,1,3.29,1.28,4.56s.46,1.95.46,2c.28-.84,1-3.4,2.23-7.66l1.38-4.73h5l2.77,9.45.85,2.94c0-.08.15-.76.46-2s.73-2.79,1.27-4.56l2-6.33h4.91l-6.42,20.2H19.61l-1.2-4q-.66-2.17-1.53-5.15t-1.11-4c-.17.62-.53,1.94-1.09,3.94s-1.07,3.72-1.53,5.17l-1.23,4H7.44L1,142.19Z"/><path class="cls-1" d="M37.26,144.77a6.19,6.19,0,0,1,2.65-2.23,9.45,9.45,0,0,1,4-.79,9.59,9.59,0,0,1,3.92.77,6.28,6.28,0,0,1,2.68,2.19,5.87,5.87,0,0,1,1,3.24H46.72a2.11,2.11,0,0,0-.89-1.69,3.58,3.58,0,0,0-2.19-.64,3.1,3.1,0,0,0-1.88.53,1.74,1.74,0,0,0-.7,1.45,1.47,1.47,0,0,0,.6,1.28,5.3,5.3,0,0,0,1.81.72l3.19.72a7.42,7.42,0,0,1,4,2.17A5.55,5.55,0,0,1,52,156.25a6.08,6.08,0,0,1-1,3.46,6.42,6.42,0,0,1-2.8,2.28,10.23,10.23,0,0,1-4.21.81,9.15,9.15,0,0,1-5.81-1.74,6.31,6.31,0,0,1-2.44-4.72h4.73a2.43,2.43,0,0,0,1,1.91,4.32,4.32,0,0,0,2.53.67,3.85,3.85,0,0,0,2.27-.58,1.85,1.85,0,0,0,.82-1.6,1.59,1.59,0,0,0-.53-1.27,3.65,3.65,0,0,0-1.51-.68L41.78,154a7.62,7.62,0,0,1-4.15-2.17,5.39,5.39,0,0,1-1.31-3.66A6.07,6.07,0,0,1,37.26,144.77Z"/><path class="cls-1" d="M63.73,161.49a9.29,9.29,0,0,1-3.78-3.7,11.94,11.94,0,0,1,0-11,9.34,9.34,0,0,1,3.75-3.7,11.48,11.48,0,0,1,5.56-1.31,12.16,12.16,0,0,1,4.8.93,9.14,9.14,0,0,1,3.59,2.64,7.92,7.92,0,0,1,1.72,4H74.24A3.92,3.92,0,0,0,72.51,147a5.89,5.89,0,0,0-3.33-.92,5.38,5.38,0,0,0-4.19,1.7,6.56,6.56,0,0,0-1.55,4.58A6.37,6.37,0,0,0,65,156.87a5.47,5.47,0,0,0,4.16,1.67,5.77,5.77,0,0,0,3.28-.93,4.17,4.17,0,0,0,1.78-2.44h5.11a8,8,0,0,1-1.63,4,8.91,8.91,0,0,1-3.56,2.7,12.23,12.23,0,0,1-4.92,1A11.3,11.3,0,0,1,63.73,161.49Z"/><path class="cls-1" d="M114.22,154.07a4.48,4.48,0,0,1,1,3,4.58,4.58,0,0,1-1.93,4,8.93,8.93,0,0,1-5.26,1.37H99.46v-20.2H108a7.73,7.73,0,0,1,5.09,1.53,5,5,0,0,1,1.85,4.05,4.72,4.72,0,0,1-.88,2.92,4.94,4.94,0,0,1-2.43,1.65A5.74,5.74,0,0,1,114.22,154.07Zm-10.22-8v4.6h3.82a2.53,2.53,0,0,0,1.92-.69,2.2,2.2,0,0,0,.66-1.57,2.36,2.36,0,0,0-.65-1.61,2.46,2.46,0,0,0-1.93-.73Zm5.94,11.85a2,2,0,0,0,.71-1.6,2.14,2.14,0,0,0-.74-1.64,2.63,2.63,0,0,0-1.85-.67H104v4.51h4.06A2.81,2.81,0,0,0,109.94,157.91Z"/><path class="cls-1" d="M128.23,142.19h4.45l7.49,20.2h-4.88l-1.49-4.16H127l-1.51,4.16h-4.8Zm4.25,12.2-.79-2.19-.81-2.54-.42-1.26a15.26,15.26,0,0,1-.48,1.53c-.26.75-.54,1.5-.84,2.27l-.82,2.19Z"/><path class="cls-1" d="M146.06,142.19h4.6v12.47a3.85,3.85,0,0,0,1.17,3,5.18,5.18,0,0,0,6.17-.06,3.91,3.91,0,0,0,1.1-3V142.19h4.6v12.67a7.32,7.32,0,0,1-2.4,5.86,9.54,9.54,0,0,1-6.46,2.08,9.21,9.21,0,0,1-6.42-2.13,7.42,7.42,0,0,1-2.36-5.81Z"/><circle class="cls-1" cx="88.75" cy="152.8" r="3.26"/></g></g></g></svg>