<?xml version="1.0" encoding="utf-8"?>
<!-- Generator: Adobe Illustrator 22.1.0, SVG Export Plug-In . SVG Version: 6.00 Build 0)  -->
<svg version="1.1" xmlns="http://www.w3.org/2000/svg" xmlns:xlink="http://www.w3.org/1999/xlink" x="0px" y="0px"
	 viewBox="0 0 32 32" style="enable-background:new 0 0 32 32;" xml:space="preserve">
<style type="text/css">
	.st0{display:none;}
	.st1{display:inline;opacity:0.32;}
	.st2{fill:none;stroke:#000000;stroke-width:2.5;stroke-miterlimit:10;}
</style>
<g id="Layer_1" class="st0">
	<path class="st1" d="M4,10l23.8,0c1,0,2-0.7,2.1-1.7C30.2,7.1,29.2,6,28,6L4.2,6c-1,0-2,0.7-2.1,1.7C1.8,8.9,2.8,10,4,10z M28,14
		L4.2,14c-1,0-2,0.7-2.1,1.7C1.8,16.9,2.8,18,4,18l23.8,0c1,0,2-0.7,2.1-1.7C30.2,15.1,29.2,14,28,14z M28,22L4.2,22
		c-1,0-2,0.7-2.1,1.7C1.8,24.9,2.8,26,4,26l23.8,0c1,0,2-0.7,2.1-1.7C30.2,23.1,29.2,22,28,22z"/>
</g>
<g id="Layer_2">
	<line class="st2" x1="2" y1="7.9" x2="29.8" y2="7.9"/>
	<line class="st2" x1="2" y1="16.1" x2="29.9" y2="16.1"/>
	<line class="st2" x1="2" y1="24.1" x2="29.9" y2="24.1"/>
</g>
</svg>
