<svg height="463pt" viewBox="-40 0 463 463.97003" width="463pt" xmlns="http://www.w3.org/2000/svg"><path d="m216.457031 227.027344v-75.058594h-16v88c-.015625 2.78125 1.414063 5.371094 3.773438 6.839844 2.359375 1.464844 5.3125 1.605468 7.800781.363281l32-16-7.152344-14.320313zm0 0"/><path d="m168.457031 179.027344-20.425781-10.21875-7.152344 14.320312 32 16c2.480469 1.242188 5.425782 1.105469 7.785156-.351562 2.359376-1.457032 3.792969-4.035156 3.792969-6.808594v-40h-16zm0 0"/><path d="m367.65625 151.523438c.519531-2.484376.785156-5.015626.800781-7.554688.050781-11.191406-4.613281-21.890625-12.847656-29.472656-8.234375-7.578125-19.28125-11.34375-30.433594-10.367188-4.25-9.8125-12.28125-17.5-22.273437-21.320312 1.027344-3.519532 1.546875-7.171875 1.554687-10.839844-.027343-22.078125-17.921875-39.972656-40-40h-.167969c-9.121093-12.203125-24.421874-18.113281-39.378906-15.199219-7.460937-10.519531-19.558594-16.769531-32.453125-16.769531-12.898437 0-24.996093 6.25-32.457031 16.769531-14.957031-2.917969-30.261719 2.988281-39.375 15.199219h-.167969c-22.082031.027344-39.976562 17.921875-40 40 .003907 3.667969.527344 7.320312 1.550781 10.839844-9.992187 3.820312-18.019531 11.507812-22.273437 21.320312-11.148437-.976562-22.195313 2.789063-30.429687 10.367188-8.238282 7.582031-12.902344 18.28125-12.847657 29.472656.011719 2.539062.28125 5.070312.796875 7.554688-10.84375 7.679687-17.128906 20.273437-16.753906 33.558593.378906 13.285157 7.367188 25.503907 18.628906 32.558594-4.242187 11.09375-3.339844 23.496094 2.457032 33.855469 5.800781 10.363281 15.902343 17.617187 27.574218 19.800781 3.554688 18.914063 20.050782 32.632813 39.296875 32.671875 7.246094 0 14.351563-2 20.535157-5.78125 6.832031 13.308594 20.503906 21.707031 35.464843 21.78125 8.683594-.027344 17.117188-2.914062 24-8.207031v80.074219c-.035156 30.988281-25.148437 56.097656-56.136719 56.132812h-87.863281v16h336v-16h-87.867187c-30.988282-.035156-56.097656-25.144531-56.132813-56.132812v-80.074219c6.882813 5.292969 15.316407 8.179687 24 8.207031 14.957031-.074219 28.632813-8.472656 35.460938-21.78125 6.183593 3.78125 13.289062 5.78125 20.539062 5.78125 19.253907-.023438 35.769531-13.746094 39.328125-32.671875 11.671875-2.183594 21.769532-9.4375 27.570313-19.800781 5.800781-10.359375 6.703125-22.761719 2.460937-33.855469 11.261719-7.054687 18.25-19.273437 18.625-32.558594.378906-13.285156-5.910156-25.878906-16.753906-33.558593zm-15.359375 54.984374c-2.335937.816407-4.160156 2.671876-4.941406 5.019532-.785157 2.34375-.4375 4.921875.941406 6.980468 4.980469 7.347657 5.496094 16.847657 1.339844 24.695313-4.15625 7.84375-12.300781 12.757813-21.179688 12.765625-4.417969 0-8 3.582031-8 8 .050781 10.101562-6.257812 19.144531-15.753906 22.578125-9.5 3.433594-20.132813.519531-26.550781-7.28125-2.027344-2.425781-5.292969-3.433594-8.332032-2.570313-3.042968.863282-5.289062 3.441407-5.734374 6.570313-1.714844 12.46875-12.796876 21.472656-25.355469 20.605469-12.554688-.871094-22.289063-11.316406-22.273438-23.902344v-3.054688l43.574219-21.742187-7.152344-14.320313-48 24c-2.699218 1.347657-4.410156 4.101563-4.421875 7.117188v119.867188c.003907 21.824218 9.910157 42.472656 26.933594 56.132812h-69.871094c17.023438-13.660156 26.929688-34.308594 26.9375-56.132812v-167.867188c0-3.03125-1.710937-5.804688-4.425781-7.160156l-48-24-7.152344 14.320312 43.578125 21.785156v51.054688c.027344 12.589844-9.707031 23.050781-22.265625 23.925781s-23.648437-8.132812-25.367187-20.605469c-.445313-3.128906-2.691407-5.703124-5.734375-6.570312-3.039063-.863281-6.304688.144531-8.328125 2.570312-6.421875 7.804688-17.0625 10.71875-26.5625 7.277344s-15.808594-12.492187-15.742188-22.597656c0-4.417969-3.582031-8-8-8-8.878906 0-17.03125-4.898438-21.195312-12.738281-4.164063-7.839844-3.660157-17.335938 1.304687-24.691407 1.378906-2.058593 1.726563-4.632812.941406-6.980468-.78125-2.347656-2.605468-4.203125-4.941406-5.019532-9.195312-3.113281-15.582031-11.503906-16.132812-21.199218-.550782-9.691406 4.839844-18.75 13.621094-22.890625 3.730468-1.804688 5.464843-6.15625 4-10.03125-1.046876-2.695313-1.589844-5.558594-1.597657-8.449219 0-13.253906 10.742188-24 24-24 2.210938.046875 4.40625.398438 6.519531 1.050781 2.132813.605469 4.421876.300781 6.320313-.84375 1.898437-1.148437 3.234375-3.027343 3.695313-5.199219 2.175781-10.121093 10.632812-17.679687 20.9375-18.710937 2.714843-.289063 5.097656-1.941406 6.316406-4.386719 1.214844-2.445312 1.101562-5.34375-.300782-7.683594-2.269531-3.675781-3.476562-7.90625-3.488281-12.226562 0-13.253906 10.742188-24 24-24 .78125.027344 1.5625.109375 2.335938.242188l.796875.109374c3.238281.4375 6.410156-1.148437 8-4 5.640625-10.484374 18.222656-15.101562 29.304687-10.75 3.878907 1.46875 8.238281-.265624 10.042969-4 3.929688-8.324218 12.3125-13.636718 21.519531-13.636718s17.585938 5.3125 21.519531 13.636718c1.804688 3.734376 6.160157 5.46875 10.039063 4 11.058594-4.316406 23.601563.289063 29.238281 10.734376 1.589844 2.855468 4.765625 4.445312 8 4l.800782-.109376c.796874-.132812 1.597656-.207031 2.402343-.226562 13.253907 0 24 10.746094 24 24-.015625 4.320312-1.222656 8.550781-3.488281 12.226562-1.40625 2.339844-1.519531 5.238282-.300781 7.683594 1.21875 2.445313 3.597656 4.097656 6.316406 4.386719 10.300781 1.03125 18.761719 8.589844 20.933594 18.710937.460937 2.171876 1.796875 4.050782 3.699219 5.199219 1.898437 1.144531 4.1875 1.449219 6.320312.84375 2.113281-.652343 4.308594-1.003906 6.519531-1.050781 13.253907 0 24 10.746094 24 24-.011719 2.890625-.554687 5.753906-1.601562 8.449219-1.464844 3.875.269531 8.226562 4 10.03125 8.765625 4.144531 14.140625 13.191406 13.589843 22.871093-.546874 9.675782-6.910156 18.058594-16.085937 21.1875zm0 0"/><path d="m80.457031 135.96875h16v16h-16zm0 0"/><path d="m296.457031 151.96875h16v16h-16zm0 0"/><path d="m192.457031 55.96875h16v16h-16zm0 0"/><path d="m280.457031 215.96875h16v16h-16zm0 0"/><path d="m232.457031 111.96875h16v16h-16zm0 0"/><path d="m144.457031 95.96875h16v16h-16zm0 0"/><path d="m64.457031 207.96875h16v16h-16zm0 0"/></svg>